<?xml version="1.0" encoding="UTF-8"?>
<svg version="1.1" xmlns="http://www.w3.org/2000/svg" width="2000" height="2000">
<path d="M0 0 C660 0 1320 0 2000 0 C2000 660 2000 1320 2000 2000 C1340 2000 680 2000 0 2000 C0 1340 0 680 0 0 Z " fill="#9333EA" transform="translate(0,0)"/>
<path d="M0 0 C0.88816406 0.41765625 1.77632812 0.8353125 2.69140625 1.265625 C24.99573245 12.56388631 41.85064291 32.58304381 54 54 C54.38655762 54.67740234 54.77311523 55.35480469 55.17138672 56.05273438 C74.52614662 90.35541872 83.82611934 129.07460027 88 168 C88.10441406 168.89557617 88.20882813 169.79115234 88.31640625 170.71386719 C92.27654773 205.56561862 91.75068756 242.2596466 87 277 C86.7831958 278.60584961 86.7831958 278.60584961 86.56201172 280.24414062 C85.58625666 287.20733617 84.38875204 294.10767508 83 301 C82.80599609 301.96292969 82.61199219 302.92585938 82.41210938 303.91796875 C72.39080038 352.08387929 52.55501275 406.03823816 10.21484375 434.8984375 C-10.70418763 448.53753086 -34.43084633 454.53784656 -59.25 449.9375 C-89.7413465 442.21636185 -113.56948814 419.50944291 -129.66259766 393.25976562 C-138.41120589 378.47752432 -145.42177322 363.22704439 -151 347 C-151.33483398 346.04963867 -151.66966797 345.09927734 -152.01464844 344.12011719 C-157.88011187 327.36086345 -161.80333765 310.45176196 -165 293 C-165.16338867 292.14792969 -165.32677734 291.29585937 -165.49511719 290.41796875 C-173.56199449 247.85386108 -173.33183435 202.50360887 -167.49951172 159.7265625 C-167.07503362 156.55978163 -166.6960108 153.39455374 -166.34765625 150.21875 C-161.24912583 106.13717731 -144.65830176 60.35404029 -115 27 C-114.41992188 26.27554688 -113.83984375 25.55109375 -113.2421875 24.8046875 C-99.18338324 7.35481488 -75.42454397 -5.97074021 -53.24951172 -8.78466797 C-34.15412211 -10.6125531 -17.39700182 -8.2959055 0 0 Z " fill="#FEFEFE" transform="translate(1113,808)"/>
<path d="M0 0 C13.65456835 10.50050019 23.87988954 22.53740642 33.17724609 36.93139648 C35.38197701 40.33519816 37.58071634 43.58867323 40.23046875 46.6640625 C42.375 49.25 42.375 49.25 42.375 51.25 C44.355 51.25 46.335 51.25 48.375 51.25 C51.56903642 40.18063978 52.10230847 29.38362219 52.5625 17.9375 C52.830625 11.770625 53.09875 5.60375 53.375 -0.75 C72.845 -0.75 92.315 -0.75 112.375 -0.75 C111.4671039 3.7894805 110.11569528 7.77094824 108.41796875 12.0390625 C107.79906382 13.61909123 107.18050824 15.19925684 106.56225586 16.77954102 C106.23611298 17.60962677 105.90997009 18.43971252 105.57394409 19.29495239 C92.01018164 53.89414887 79.79737116 88.54070913 73.375 125.25 C73.20838867 126.17876953 73.04177734 127.10753906 72.87011719 128.06445312 C68.13486991 155.49555433 69.2105777 184.68938862 72.375 212.25 C72.55995863 214.01952469 72.74485398 215.78905599 72.9296875 217.55859375 C75.89896961 244.46906091 80.91115964 271.24550706 86.0625 297.8125 C86.20071167 298.52869507 86.33892334 299.24489014 86.48132324 299.98278809 C88.10687444 308.36713333 89.92281999 316.68477649 91.91265869 324.99002075 C93.58406402 332.01729549 94.97292909 339.0898564 96.3125 346.1875 C96.69966703 348.22360949 97.08765586 350.25956146 97.47563171 352.29551697 C97.73565159 353.66087208 97.99518711 355.02631953 98.25422668 356.39186096 C99.04349422 360.54502506 99.8589153 364.69202723 100.6953125 368.8359375 C102.99834853 380.30817059 105.05800826 391.81458723 106.84713745 403.3777771 C107.06777137 404.79398456 107.29331984 406.20943857 107.52468872 407.62393188 C109.4912098 419.73145671 109.375 430.73324456 109.375 443.25 C89.905 443.25 70.435 443.25 50.375 443.25 C50.045 435.99 49.715 428.73 49.375 421.25 C42.66816769 422.2081189 40.75730829 423.03677288 36.25 427.3125 C16.65674357 444.79785498 -7.26490986 452.48465646 -33.25244141 451.42041016 C-46.23848405 450.48768143 -57.42848062 445.58335317 -68.625 439.25 C-69.58792969 438.72792969 -70.55085938 438.20585938 -71.54296875 437.66796875 C-102.54789937 419.57794276 -121.71862009 383.77379661 -133.625 351.25 C-133.92744629 350.44916992 -134.22989258 349.64833984 -134.54150391 348.82324219 C-150.60218436 306.28599466 -154.86555989 261.30388419 -154.9375 216.1875 C-154.94117584 215.09026611 -154.94485168 213.99303223 -154.94863892 212.86254883 C-155.06705883 145.23527907 -141.32534183 75.18673979 -92.625 25.25 C-77.93258173 10.5136582 -59.49000711 -0.51140273 -39.625 -6.75 C-38.97917969 -6.97429688 -38.33335938 -7.19859375 -37.66796875 -7.4296875 C-23.82675577 -11.68403928 -11.48819586 -8.05623833 0 0 Z " fill="#FEFEFE" transform="translate(1559.625,807.75)"/>
<path d="M0 0 C0.98363525 0.10376953 1.96727051 0.20753906 2.98071289 0.31445312 C6.21768405 0.65580202 9.45477717 0.99597813 12.69189453 1.3359375 C17.26876009 1.81688528 21.84513055 2.30235246 26.42138672 2.7890625 C79.59861427 8.48816325 79.59861427 8.48816325 133 11 C134.08510864 11.01848999 135.17021729 11.03697998 136.28820801 11.05603027 C192.69547977 11.96962871 248.29239703 8.63313624 304.27310181 2.10386658 C311.17490002 1.30128652 318.07669589 0.59018473 325 0 C322.78843692 7.68595057 320.17820167 15.17557096 317.4375 22.6875 C309.09306123 45.86821196 301.6612777 69.14718294 295.73632812 93.07714844 C294.8870138 96.44849825 293.97127796 99.79827988 293.04614258 103.14941406 C283.22496955 139.06189435 279.13989419 176.09911111 275 213 C272.23454732 210.37441955 270.06151173 207.79925495 268.0390625 204.5703125 C267.49314453 203.70494873 266.94722656 202.83958496 266.38476562 201.94799805 C265.80404297 201.01640869 265.22332031 200.08481934 264.625 199.125 C264.00560547 198.14249268 263.38621094 197.15998535 262.74804688 196.14770508 C260.8275221 193.10127995 258.91318571 190.05103822 257 187 C228.82153963 141.81872644 228.82153963 141.81872644 196 100 C195.16984375 99.03578125 194.3396875 98.0715625 193.484375 97.078125 C181.03052622 82.90110218 163.15281056 68.0943603 143.8125 65.1875 C142.554375 65.125625 141.29625 65.06375 140 65 C139.19949219 64.92652344 138.39898437 64.85304688 137.57421875 64.77734375 C131.77099675 64.43390573 128.39007448 65.36551954 123.69140625 68.80859375 C122 70 122 70 119 71 C117.95265751 72.80673946 117.95265751 72.80673946 117 75 C115.92878995 76.65374953 114.84410458 78.29880734 113.75 79.9375 C100.03281529 101.46467601 95.1338862 126.64019153 91.25 151.5 C91.13438721 152.22687012 91.01877441 152.95374023 90.8996582 153.70263672 C89.00632574 166.6785052 88.81331469 179.83852016 88.81469727 192.92871094 C88.81248812 195.26254956 88.79416406 197.59593027 88.77539062 199.9296875 C88.74279833 208.50860191 89.26568211 216.56606207 91 225 C91.30122866 226.71952029 91.59950132 228.43956156 91.89453125 230.16015625 C93.57669588 239.32978193 95.33769871 247.80337354 100 256 C100.61875 257.134375 101.2375 258.26875 101.875 259.4375 C104.61188888 262.73786601 107.17259552 264.08629776 111 266 C111.66 266.33 112.32 266.66 113 267 C121.54615718 267.49997926 129.67986536 266.97088647 138 265 C138.78761719 264.81695313 139.57523438 264.63390625 140.38671875 264.4453125 C143.28528238 263.70815817 146.1378737 262.86873951 149 262 C149.65000977 261.80374023 150.30001953 261.60748047 150.96972656 261.40527344 C172.68957925 254.7471335 193.8509545 245.89288709 214.67749023 236.85205078 C217 236 217 236 220 236 C219.33225227 268.17329964 205.04188238 300.08559689 188.625 327.1875 C188.22023438 327.86578857 187.81546875 328.54407715 187.3984375 329.24291992 C185.85184074 331.70104215 184.51575346 333.67829239 182.02734375 335.23046875 C178.62835345 334.84407101 177.19707638 332.58091659 174.9375 330.125 C173.95835769 329.09520672 172.97519078 328.06922692 171.98828125 327.046875 C171.49021973 326.53060547 170.9921582 326.01433594 170.47900391 325.48242188 C158.94603088 313.92279622 139.54258683 298.57217155 122.54296875 296.734375 C114.2117035 296.78964044 106.51393334 297.34310268 99.91333008 302.92944336 C93.24556561 310.14512671 92.19698925 319.9268199 92.4375 329.3125 C92.45409668 330.43479004 92.47069336 331.55708008 92.48779297 332.71337891 C92.96268108 350.20058004 96.7055591 366.83205591 102.14501953 383.39404297 C103.04038648 386.12309688 103.90918544 388.85983522 104.77734375 391.59765625 C123.40699474 449.61751509 151.30083255 505.38320245 180 559 C176.71581182 560.09472939 175.65571367 559.90692518 172.36328125 559.1796875 C170.93145508 558.87466309 170.93145508 558.87466309 169.47070312 558.56347656 C167.90739258 558.22268066 167.90739258 558.22268066 166.3125 557.875 C155.91403973 555.69706937 145.49634548 553.87141263 135 552.25 C133.97563339 552.0904483 133.97563339 552.0904483 132.93057251 551.92767334 C128.62402368 551.25868355 124.31404001 550.61872627 120 550 C119.22406494 549.88366211 118.44812988 549.76732422 117.64868164 549.64746094 C109.96513728 548.6267687 102.17515465 548.75598223 94.4375 548.75 C93.64955048 548.74932526 92.86160095 548.74865051 92.04977417 548.74795532 C62.64685259 548.78751563 32.91224511 551.84100685 4.45214844 559.43164062 C2 560 2 560 -1 560 C0.31185687 555.80135545 1.90418927 551.95177446 3.87109375 548.01953125 C4.43989258 546.86960693 5.00869141 545.71968262 5.59472656 544.53491211 C5.89511841 543.9292038 6.19551025 543.32349548 6.50500488 542.69943237 C17.64811785 520.15100267 26.6203887 496.90164972 34.890625 473.15917969 C35.89527081 470.2982385 36.92463118 467.448284 37.96875 464.6015625 C42.46614656 452.25815778 45.85021235 439.74768102 49 427 C49.38450754 425.46982335 49.76985601 423.93985763 50.15625 422.41015625 C51.11434976 418.60927079 52.05746152 414.80477779 53 411 C53.2276001 410.13890625 53.4552002 409.2778125 53.68969727 408.390625 C55.7568484 400.44726459 57.22593679 392.47027246 58.5625 384.375 C60.92679028 370.23317703 60.92679028 370.23317703 62.05859375 364.76171875 C79.5759319 278.91887508 67.07823433 182.61646443 40.3125 100.0625 C40.10034851 99.40768646 39.88819702 98.75287292 39.6696167 98.07821655 C29.88054919 67.94690758 18.02383281 38.76413237 4.01245117 10.3515625 C3.48756104 9.28421875 2.9626709 8.216875 2.421875 7.1171875 C1.95362305 6.17472168 1.48537109 5.23225586 1.00292969 4.26123047 C0 2 0 2 0 0 Z " fill="#FEFEFE" transform="translate(214,691)"/>
<path d="M0 0 C85.14 0 170.28 0 258 0 C258.99935941 6.99551587 259.18608914 13.71392624 259.18530273 20.74829102 C259.18746313 22.90076275 259.20558363 25.05269853 259.22460938 27.20507812 C259.37710054 64.35384137 246.95953386 100.72561982 224 130 C222.96939453 131.34384766 222.96939453 131.34384766 221.91796875 132.71484375 C217.22044101 138.72804987 212.15426428 144.37792567 207 150 C206.13246094 150.96035156 205.26492188 151.92070313 204.37109375 152.91015625 C197.06117112 160.98616715 189.65095311 169.02902227 181.37353516 176.12866211 C176.80902215 180.11265045 172.5086657 184.32962746 168.22265625 188.609375 C167.41187119 189.41683167 166.60108612 190.22428833 165.76573181 191.05621338 C164.06101959 192.75589181 162.35763401 194.45690175 160.65551758 196.15917969 C158.07849647 198.73401708 155.49358146 201.30074516 152.90820312 203.8671875 C141.89302799 214.83370227 141.89302799 214.83370227 131.83691406 226.66601562 C129.94230638 229.07330556 127.94325623 231.33948759 125.88671875 233.609375 C100.77361997 261.59697681 74.99670844 300.98221144 75.75 339.91796875 C76.24987675 346.08051183 77.45686522 351.09138593 81.375 355.9375 C88.72346635 361.71129499 94.95241154 361.92431159 104 361 C129.62108782 354.66801491 153.59535401 330.1410779 169.57421875 310.046875 C171.34440738 307.82344967 173.13328498 305.63160186 174.95703125 303.453125 C186.67775432 289.38430186 196.97870004 274.31204839 207 259 C209.72409513 261.72409513 209.76194456 264.52609311 210.296875 268.19140625 C210.5317405 269.6954444 210.7669434 271.19942989 211.00244141 272.70336914 C211.12371399 273.49550812 211.24498657 274.28764709 211.36993408 275.10379028 C220.24245216 332.50158732 242.97270078 383.90584777 269.83520508 434.98999023 C270.3845874 436.03485596 270.93396973 437.07972168 271.5 438.15625 C271.9846875 439.07212891 272.469375 439.98800781 272.96875 440.93164062 C274 443 274 443 274 444 C186.55 444 99.1 444 9 444 C9 365.80969157 33.2059473 306.86591064 83.60107422 248.62548828 C85.09100805 246.89425277 86.56416716 245.14969766 88.03515625 243.40234375 C93.06545536 237.44495066 98.1204401 231.64756414 103.76953125 226.2578125 C105.62582284 224.37876427 107.32492975 222.47053004 109.0378418 220.46435547 C113.3481116 215.52348702 117.96811902 210.92447753 122.625 206.3125 C123.98359131 204.95958862 123.98359131 204.95958862 125.36962891 203.5793457 C128.72921306 200.23394556 132.09331262 196.89311608 135.45776367 193.5526123 C138.76634351 190.267082 142.07102481 186.97766209 145.375 183.6875 C146.23561035 182.83518799 147.0962207 181.98287598 147.98291016 181.10473633 C152.87079675 176.2365939 157.52621393 171.25022284 162 166 C162.86882812 165.01257813 163.73765625 164.02515625 164.6328125 163.0078125 C182.93986038 141.83132138 200.93149582 116.81802318 207 89 C207.3403125 87.5459375 207.3403125 87.5459375 207.6875 86.0625 C208.60523569 77.06869026 208.81186553 68.96299872 204 61 C199.34750824 55.42878835 193.49149488 52.53659452 186.3515625 51.68359375 C171.48714958 51.06590367 158.67430502 57.0066701 146 64 C145.07316406 64.50660156 144.14632812 65.01320313 143.19140625 65.53515625 C125.39521744 75.75728711 106.99771766 91.13134656 93.7578125 106.9296875 C91.66113729 109.39910497 89.45611323 111.7529096 87.25 114.125 C81.46723086 120.47556369 76.21695885 127.18218209 71 134 C70.51241211 134.63067383 70.02482422 135.26134766 69.52246094 135.91113281 C57.1899988 151.75732816 57.1899988 151.75732816 47 169 C46.34 169 45.68 169 45 169 C44.82778931 167.37263916 44.82778931 167.37263916 44.65209961 165.71240234 C42.30473563 143.83269109 39.41157094 122.58244497 33.83789062 101.26220703 C33.05493421 98.21387846 32.33461903 95.15947258 31.640625 92.08984375 C25.4350535 65.04765979 15.73407081 38.78972243 5.2734375 13.13427734 C3.49760303 8.7634639 1.75214541 4.38036354 0 0 Z " fill="#FEFEFE" transform="translate(683,807)"/>
<path d="M0 0 C5.43595834 2.85352144 10.10804621 6.18638231 14.75 10.1875 C15.55050781 10.86683594 16.35101562 11.54617188 17.17578125 12.24609375 C50.70024671 41.49527745 69.58418453 85.36518242 84.75 126.1875 C85.09788574 127.11675293 85.44577148 128.04600586 85.80419922 129.00341797 C90.28787654 141.06412752 93.85972714 153.28590565 97.10644531 165.73242188 C97.67010669 167.88271731 98.24759444 170.02823104 98.8359375 172.171875 C131.7516932 292.77520387 131.7516932 292.77520387 108.44140625 338.76953125 C105.23765445 344.1438466 101.9061512 347.60419208 95.75 349.1875 C81.85655541 351.31550919 67.92881661 344.9743274 56.75 337.1875 C11.04206967 303.16705648 -10.10803016 243.20199022 -26.98144531 191.08447266 C-28.11177225 187.59832101 -29.2766994 184.12455272 -30.44921875 180.65234375 C-31.9924738 176.0312287 -33.39766489 171.40207717 -34.625 166.6875 C-34.82996094 165.90036621 -35.03492188 165.11323242 -35.24609375 164.30224609 C-44.79914938 126.81222314 -51.40058596 88.55713891 -51.625 49.8125 C-51.63294586 49.10027283 -51.64089172 48.38804565 -51.64907837 47.65423584 C-51.78694611 31.67965158 -50.64718533 12.04849204 -40.3125 -0.9375 C-29.05870445 -12.3613781 -12.6027031 -5.96549271 0 0 Z " fill="#9333EA" transform="translate(1038.25,857.8125)"/>
<path d="M0 0 C28.66034372 10.06047767 48.23367274 36.84876122 62.8659668 62.19189453 C63.24817383 62.85092773 63.63038086 63.50996094 64.02416992 64.18896484 C83.18570636 97.39520906 97.20889119 133.63231525 107.16870117 170.60986328 C107.87194674 173.21403875 108.59514477 175.81215735 109.3190918 178.41064453 C116.6757857 205.24036883 121.87296108 232.53847732 124.8659668 260.19189453 C124.9690918 261.11687744 125.0722168 262.04186035 125.1784668 262.99487305 C126.04968446 271.87429236 126.08678183 280.76613356 126.10620117 289.68041992 C126.11588609 292.35708962 126.14699892 295.03298261 126.1784668 297.70947266 C126.28786811 315.47929862 125.24676312 335.89512122 112.7097168 349.70361328 C107.3462381 354.03303147 101.41553113 353.71008315 94.8659668 353.19189453 C71.61246853 349.97903089 52.73779676 331.64670111 38.7409668 314.00439453 C9.04402066 274.47727955 -8.38185377 227.2189031 -22.1340332 180.19189453 C-22.45355957 179.10489258 -22.77308594 178.01789063 -23.10229492 176.89794922 C-27.90300996 160.38027729 -31.37315769 143.72695796 -34.44848633 126.81933594 C-34.89112447 124.47720009 -35.36185458 122.14011919 -35.86645508 119.81054688 C-40.10114673 100.2017247 -41.65994619 80.48351684 -41.58007812 60.45019531 C-41.57146073 57.1642589 -41.60068736 53.88000979 -41.63208008 50.59423828 C-41.68308748 35.07708952 -41.59172354 15.08693471 -30.10668945 3.07080078 C-20.80477502 -5.28914763 -11.31331544 -3.73066077 0 0 Z " fill="#9333EA" transform="translate(1491.134033203125,853.80810546875)"/>
<path d="M0 0 C9.73218478 4.97892932 23.1682607 13.31292253 29.0703125 22.62890625 C28.54772573 26.55887958 27.27659918 30.20071499 25.99609375 33.94140625 C25.5789209 35.17044678 25.16174805 36.3994873 24.73193359 37.66577148 C24.51172546 38.31182343 24.29151733 38.95787537 24.06463623 39.62350464 C19.67846082 52.52426307 15.58548842 65.46129482 12.0703125 78.62890625 C11.76383789 79.76875977 11.45736328 80.90861328 11.14160156 82.08300781 C2.67919876 113.06426037 2.67919876 113.06426037 -2.9296875 144.62890625 C-5.49642805 142.33539042 -6.8160982 140.12738285 -8.2421875 137.0078125 C-8.67208984 136.08234619 -9.10199219 135.15687988 -9.54492188 134.20336914 C-10.00189453 133.20942139 -10.45886719 132.21547363 -10.9296875 131.19140625 C-21.05696803 109.65065352 -32.45896082 89.79279619 -47.9296875 71.62890625 C-48.44144531 70.95988281 -48.95320313 70.29085937 -49.48046875 69.6015625 C-57.25760727 59.77463553 -69.35864581 51.29431738 -80.9296875 46.62890625 C-81.60386719 46.32597656 -82.27804687 46.02304687 -82.97265625 45.7109375 C-90.27712293 42.79189172 -98.16706691 42.9051222 -105.9296875 42.62890625 C-124.240505 72.65101745 -121.20739471 121.75149556 -121.1796875 155.81640625 C-121.17866028 157.63353119 -121.17866028 157.63353119 -121.1776123 159.48736572 C-121.15321697 172.56481886 -121.03775116 185.59280659 -119.9296875 198.62890625 C-119.8471875 199.60674072 -119.7646875 200.5845752 -119.6796875 201.59204102 C-116.54556135 235.23344241 -109.60649395 269.73830557 -98.87695312 301.76660156 C-97.76849832 305.11596344 -96.701694 308.47764657 -95.6328125 311.83984375 C-85.87638798 342.28782634 -73.83903305 371.84167272 -59.9296875 400.62890625 C-59.56858887 401.3775293 -59.20749023 402.12615234 -58.83544922 402.89746094 C-55.60865154 409.54576332 -52.21205887 416.09972496 -48.7734375 422.640625 C-48.22171875 423.69161377 -47.67 424.74260254 -47.1015625 425.82543945 C-46.00184114 427.91616263 -44.89779105 430.0046156 -43.7890625 432.09057617 C-43.28890625 433.03908447 -42.78875 433.98759277 -42.2734375 434.96484375 C-41.82162109 435.8161084 -41.36980469 436.66737305 -40.90429688 437.54443359 C-39.9296875 439.62890625 -39.9296875 439.62890625 -39.9296875 441.62890625 C-82.4996875 441.62890625 -125.0696875 441.62890625 -168.9296875 441.62890625 C-166.99826262 434.54701503 -164.99791877 427.66971563 -162.6171875 420.75390625 C-155.09629101 398.33630808 -150.13414026 375.8687772 -145.9296875 352.62890625 C-145.7344751 351.5630127 -145.5392627 350.49711914 -145.33813477 349.39892578 C-143.95124867 341.51245235 -143.12782155 333.59745344 -142.3671875 325.62890625 C-142.17866211 323.71464844 -142.17866211 323.71464844 -141.98632812 321.76171875 C-141.62403334 318.05151665 -141.26746239 314.34142861 -140.9296875 310.62890625 C-140.84415115 309.74703644 -140.75861481 308.86516663 -140.67048645 307.95657349 C-139.98809631 300.51942483 -139.76910289 293.14973003 -139.76171875 285.68359375 C-139.75839035 284.47486603 -139.75506195 283.26613831 -139.75163269 282.02078247 C-139.746598 279.47105282 -139.74422329 276.92131665 -139.74438477 274.37158203 C-139.74222091 270.56270786 -139.72409014 266.75413475 -139.70507812 262.9453125 C-139.6505988 239.95858081 -141.29753942 217.28409007 -144.3046875 194.50390625 C-144.42307983 193.59175354 -144.54147217 192.67960083 -144.66345215 191.73980713 C-148.51331547 162.33074963 -153.70449516 133.10276172 -158.69628906 103.87060547 C-162.05171148 84.18653607 -162.05171148 84.18653607 -163.1484375 75.98828125 C-163.30280022 74.84612404 -163.30280022 74.84612404 -163.46028137 73.68089294 C-166.8930562 48.12163677 -168.9296875 23.61333443 -168.9296875 -2.37109375 C-145.4996875 -2.37109375 -122.0696875 -2.37109375 -97.9296875 -2.37109375 C-98.5896875 0.92890625 -99.2496875 4.22890625 -99.9296875 7.62890625 C-100.39159603 13.32829833 -100.39159603 13.32829833 -98.9296875 18.62890625 C-92.24969987 18.27264024 -88.50393483 16.57418806 -83.1796875 12.62890625 C-82.14207275 11.88894409 -82.14207275 11.88894409 -81.08349609 11.1340332 C-75.87709037 7.39963021 -70.78639582 3.51068277 -65.68359375 -0.36328125 C-44.28642731 -15.96348487 -22.68166612 -10.61501974 0 0 Z " fill="#FEFEFE" transform="translate(1381.9296875,809.37109375)"/>
<path d="M0 0 C35.31 0 70.62 0 107 0 C105.41370108 4.75889677 104.05091646 7.79226075 101.5 11.9375 C92.40577413 27.3824067 86.02723931 44.08483909 81.65136719 61.42480469 C81.00237918 63.99059387 80.31905757 66.54551987 79.6328125 69.1015625 C64.5947746 126.74828818 72.39757115 189.06906811 81.24536133 246.99780273 C81.84341166 250.9247949 82.39313414 254.85598063 82.921875 258.79296875 C84.33162498 268.75113943 86.22834315 278.63329203 88.02453613 288.52731323 C93.96473156 321.32280295 99.76602329 354.11543091 104.03112793 387.17752075 C104.29405146 389.20585854 104.56248449 391.23349302 104.83752441 393.26022339 C107.14381958 410.40559204 107 426.44748622 107 444 C71.69 444 36.38 444 0 444 C3.34150066 437.98529881 6.68584222 432.37486581 10.5625 426.75 C30.93651022 396.60358132 46.08782254 363.28823506 53.1875 327.5 C53.35483643 326.66952148 53.52217285 325.83904297 53.69458008 324.98339844 C62.17025524 279.9604721 53.89177637 232.29996529 41 189 C40.75854248 188.17653076 40.51708496 187.35306152 40.26831055 186.50463867 C39.62384892 184.31327698 38.97020656 182.12492038 38.3125 179.9375 C38.06322754 179.10629639 37.81395508 178.27509277 37.55712891 177.41870117 C35.73720034 171.37765592 33.86363491 165.35442467 31.97680664 159.33398438 C15.53909967 106.79742657 0 55.53145889 0 0 Z " fill="#FEFDFE" transform="translate(557,807)"/>
<path d="M0 0 C0.61488281 0.43828125 1.22976563 0.8765625 1.86328125 1.328125 C10.26586397 7.81171433 16.8229161 19.13976754 18.39770508 29.65576172 C18.56993311 32.3879813 18.60687719 35.07534377 18.5625 37.8125 C18.54606445 39.25653198 18.54606445 39.25653198 18.52929688 40.72973633 C18.1461059 53.38674704 13.62318251 63.60587071 5 73 C-12.74586809 88.91179793 -33.95846685 92.21716096 -57 91 C-73.40205992 89.38004346 -88.4768792 83.33271541 -99.9375 71.1875 C-110.42790921 58.16582289 -112.26134044 44.10063974 -111 28 C-110.22418315 23.9165089 -108.9914066 20.63520081 -107 17 C-106.50242187 16.07058594 -106.00484375 15.14117188 -105.4921875 14.18359375 C-97.39904032 0.34995846 -83.65275144 -8.33955531 -68.34375 -12.52734375 C-44.97174031 -17.24069904 -19.39492141 -14.55556964 0 0 Z " fill="#FEFEFE" transform="translate(657,687)"/>
<path d="M0 0 C1.37152222 -0.00966797 1.37152222 -0.00966797 2.77075195 -0.01953125 C15.56649146 0.22026637 26.64537652 5.13133706 36.15234375 13.671875 C45.8188446 24.31639829 50.2200278 37.2109623 50.0625 51.375 C50.05126099 52.7043457 50.05126099 52.7043457 50.03979492 54.06054688 C49.79109014 69.14400559 45.50041902 82.71518969 34.7109375 93.625 C23.82697551 103.79832529 11.53056421 107.27567337 -3.25 106.78515625 C-17.65188719 105.74216244 -28.34718962 99.94483457 -38.1875 89.5 C-48.78294254 76.22099559 -51.00721905 58.89985811 -49.1875 42.5 C-47.05600033 29.25243233 -40.59019537 17.3233888 -29.9375 9 C-19.98460434 2.53814752 -11.75005281 0.07866802 0 0 Z " fill="#FEFDFE" transform="translate(1737.1875,1152.5)"/>
</svg>
